# xmcd CD database file
#
# Track frame offsets:
#	150
#	18300
#	37869
#	60559
#	75826
#	99410
#	119575
#	139027
#	158232
#	190894
#	212564
#	238751
#
# Disc length: 3380 seconds
#
# Revision: 2
# Processed by: cddbd v1.4PL0 Copyright (c) Steve Scherf et al.
# Submitted via: CDex 1.50beta10
#
DISCID=920d320c
DTITLE=Robben Ford and The Blue Line - Handful Of Blues
DYEAR=1995
DGENRE=Blues
TTITLE0=Rugged Road
TTITLE1=Chevrolet
TTITLE2=When I Leave Here
TTITLE3=The Miller's Son
TTITLE4=Don't Let Me Be Misunderstood
TTITLE5=Top Of The Hill
TTITLE6=Running Out On Me
TTITLE7=Tired Of Talkin
TTITLE8=Good Thing
TTITLE9=Think Twice
TTITLE10=I Just Want To Make Love To You
TTITLE11=Strong Will To Live
EXTD=YEAR: 1995
EXTT0=
EXTT1=
EXTT2=
EXTT3=
EXTT4=
EXTT5=
EXTT6=
EXTT7=
EXTT8=
EXTT9=
EXTT10=
EXTT11=
PLAYORDER=
